<?xml version="1.0" encoding="utf-8"?>
<!-- Generator: Adobe Illustrator 27.5.0, SVG Export Plug-In . SVG Version: 6.00 Build 0)  -->
<svg version="1.2" baseProfile="tiny" id="Layer_1" xmlns="http://www.w3.org/2000/svg" xmlns:xlink="http://www.w3.org/1999/xlink"
	 x="0px" y="0px" viewBox="0 0 1121.19 1000" overflow="visible" xml:space="preserve">
<g>
	<g>
		<path d="M365.18,680.18V485.43h366.74c20.27,0,35.72,4.3,46.34,12.89c10.62,8.59,15.93,21.09,15.93,37.48
			c0,9.08-1.94,16.9-5.82,23.47c-3.88,6.57-9.65,11.75-17.32,15.54c10.05,3.97,17.54,9.78,22.48,17.45
			c4.94,7.67,7.4,17.41,7.4,29.22c0,18.69-6.17,33.14-18.51,43.37c-12.34,10.23-29.84,15.34-52.49,15.34H365.18z M371.92,673.96
			h351.27c14.63,0,25.6-0.88,32.92-2.64c7.32-1.76,13.66-4.67,19.04-8.73c5.9-4.58,10.51-10.44,13.82-17.58
			c3.31-7.14,4.96-14.89,4.96-23.27c0-12.07-2.82-21.75-8.46-29.02c-5.64-7.27-14.76-13.07-27.37-17.39
			c9.34-2.82,16.5-7.58,21.48-14.28c4.98-6.7,7.47-14.89,7.47-24.59c0-15.42-4.76-26.73-14.28-33.91
			c-9.52-7.18-24.51-10.78-44.95-10.78H371.92V673.96z M672.81,566.74v-53.41h55.79c10.84,0,18.97,2.2,24.39,6.61
			c5.42,4.41,8.13,10.97,8.13,19.7c0,9.17-2.76,15.98-8.26,20.43c-5.51,4.45-13.86,6.68-25.05,6.68H672.81z M672.81,651.22v-63.07
			h55.79c13.04,0,22.59,2.53,28.62,7.6c6.04,5.07,9.06,13.07,9.06,24c0,10.93-3.02,18.91-9.06,23.93
			c-6.04,5.02-15.67,7.54-28.89,7.54H672.81z M679.56,560.79h46.27c10.05,0,17.25-1.65,21.62-4.96c4.36-3.31,6.54-8.7,6.54-16.2
			c0-7.14-2.14-12.32-6.41-15.54c-4.28-3.22-11.22-4.83-20.82-4.83h-47.2V560.79z M679.56,645.01h47.46
			c12.16,0,20.6-1.89,25.32-5.69c4.71-3.79,7.07-10.31,7.07-19.57c0-9.08-2.45-15.62-7.34-19.63c-4.89-4.01-13.16-6.02-24.79-6.02
			h-47.73V645.01z"/>
	</g>
	<g>
		<path d="M365.18,680.12V320.5h169.43c36.78,0,64.82,7.77,84.11,23.32c19.29,15.54,28.93,38.13,28.93,67.75
			c0,18.23-3.58,33.45-10.74,45.65c-7.16,12.21-17.91,21.65-32.23,28.32c18.55,7.49,32.43,18.27,41.63,32.35
			c9.19,14.08,13.79,31.62,13.79,52.61c0,35-11.39,62.01-34.18,81.05c-22.79,19.04-55.1,28.56-96.92,28.56H365.18z M435.98,459.66
			h84.47c18.23,0,31.57-3.13,40.04-9.4c8.46-6.26,12.7-16.15,12.7-29.66c0-13.18-4.11-22.74-12.33-28.69
			c-8.22-5.94-21.85-8.91-40.89-8.91h-83.98V459.66z M435.98,615.18h87.65c20.67,0,35.72-3.74,45.17-11.23
			c9.44-7.48,14.16-19.29,14.16-35.4c0-16.76-4.64-28.85-13.92-36.25c-9.28-7.4-24.58-11.11-45.9-11.11h-87.16V615.18z"/>
	</g>
	<g display="none">
		<path display="inline" d="M660.38,323.38h37.24v96.72c0,11.93,2.76,20.64,8.27,26.12c5.52,5.48,14.28,8.22,26.29,8.22
			c12.17,0,21.03-2.72,26.59-8.17c5.56-5.44,8.34-14.17,8.34-26.17v-96.72h36.87v100.18c0,18.91-6.14,33.43-18.44,43.55
			c-12.29,10.12-30,15.18-53.12,15.18c-23.29,0-41.12-5.04-53.49-15.13c-12.37-10.08-18.56-24.62-18.56-43.6V323.38z"/>
		<path display="inline" d="M819.94,477.99V323.8h70.22c27.5,0,48.01,6.39,61.52,19.16c13.51,12.77,20.26,32.14,20.26,58.1
			c0,14.1-2.5,26.52-7.49,37.27c-4.99,10.75-12.23,19.4-21.72,25.96c-7.14,4.89-15.25,8.39-24.34,10.52
			c-9.09,2.13-21.83,3.19-38.21,3.19H819.94z M856.09,450.15h29.57c17.12,0,29.51-3.85,37.18-11.57c7.67-7.71,11.5-20.22,11.5-37.53
			c0-17.24-3.57-29.9-10.71-38c-7.14-8.09-18.3-12.14-33.47-12.14h-34.08V450.15z"/>
		<path display="inline" d="M1121.6,459.78c-6.65,7.75-14.22,13.43-22.7,17.06c-8.48,3.63-18.44,5.44-29.88,5.44
			c-25.07,0-45.38-7.48-60.91-22.45c-15.54-14.97-23.31-34.63-23.31-58.99c0-24.56,7.75-44.21,23.24-58.93
			c15.5-14.72,36.15-22.09,61.95-22.09c22.47,0,40.81,4.62,55.01,13.87c14.2,9.25,22.64,21.97,25.31,38.16h-37.61
			c-2.27-8.02-6.92-14.13-13.94-18.32c-7.02-4.19-16.17-6.28-27.44-6.28c-15.01,0-26.8,4.73-35.35,14.18
			c-8.56,9.46-12.84,22.52-12.84,39.2c0,16.75,4.46,29.87,13.39,39.36c8.92,9.49,21.18,14.24,36.75,14.24
			c11.68,0,21.46-2.97,29.33-8.9c7.87-5.93,12.74-14.06,14.6-24.39h-40.65v-26.38h74.24v83.43h-24.7L1121.6,459.78z"/>
		<path display="inline" d="M1167.2,477.99V323.8h130.21v26.8h-93.82v32.87h85.78v26.38h-85.78v39.67h98.21v28.47H1167.2z"/>
		<path display="inline" d="M1364.29,477.99V351.33h-53.18V323.8h142.88v27.53h-52.82v126.66H1364.29z"/>
	</g>
	<g display="none">
		<path display="inline" d="M810.13,486.11h39.15v117.92c0,14.55,2.9,25.16,8.7,31.84c5.8,6.68,15.01,10.02,27.64,10.02
			c12.79,0,22.11-3.32,27.96-9.95c5.84-6.64,8.76-17.27,8.76-31.91V486.11h38.77v122.13c0,23.06-6.46,40.75-19.38,53.09
			c-12.92,12.34-31.54,18.5-55.85,18.5c-24.48,0-43.22-6.15-56.23-18.44c-13.01-12.29-19.51-30.01-19.51-53.15V486.11z"/>
		<path display="inline" d="M973.88,674.61V486.63h73.82c28.92,0,50.47,7.78,64.67,23.35c14.2,15.57,21.3,39.18,21.3,70.83
			c0,17.19-2.62,32.33-7.87,45.43c-5.25,13.1-12.86,23.65-22.84,31.65c-7.51,5.96-16.04,10.23-25.59,12.83
			c-9.55,2.6-22.95,3.89-40.17,3.89H973.88z M1011.88,640.66h31.09c18,0,31.03-4.7,39.09-14.1c8.06-9.4,12.09-24.65,12.09-45.75
			c0-21.01-3.75-36.46-11.26-46.33c-7.51-9.87-19.24-14.8-35.18-14.8h-35.82V640.66z"/>
		<path display="inline" d="M1145.17,674.61V486.63h73.82c28.92,0,50.47,7.78,64.67,23.35c14.2,15.57,21.3,39.18,21.3,70.83
			c0,17.19-2.62,32.33-7.87,45.43c-5.25,13.1-12.86,23.65-22.84,31.65c-7.51,5.96-16.04,10.23-25.59,12.83
			c-9.55,2.6-22.95,3.89-40.17,3.89H1145.17z M1183.17,640.66h31.09c18,0,31.03-4.7,39.09-14.1c8.06-9.4,12.09-24.65,12.09-45.75
			c0-21.01-3.75-36.46-11.26-46.33c-7.51-9.87-19.24-14.8-35.18-14.8h-35.82V640.66z"/>
		<path display="inline" d="M1391.93,674.61h-38.77v-70.06l-68.45-117.92h47.47l40.3,81.04l37.23-81.04h44.27l-62.05,117.92V674.61z
			"/>
	</g>
</g>
</svg>
