<?xml version="1.0" encoding="utf-8"?>
<!-- Generator: Adobe Illustrator 27.5.0, SVG Export Plug-In . SVG Version: 6.00 Build 0)  -->
<svg version="1.1" id="Layer_1" xmlns="http://www.w3.org/2000/svg" xmlns:xlink="http://www.w3.org/1999/xlink" x="0px" y="0px"
	 viewBox="0 0 1309 474.3" style="enable-background:new 0 0 1309 474.3;" xml:space="preserve">
<g>
	<g>
		<path d="M110.1,417.3V222.6h366.7c20.3,0,35.7,4.3,46.3,12.9c10.6,8.6,15.9,21.1,15.9,37.5c0,9.1-1.9,16.9-5.8,23.5
			c-3.9,6.6-9.7,11.8-17.3,15.5c10.1,4,17.5,9.8,22.5,17.5c4.9,7.7,7.4,17.4,7.4,29.2c0,18.7-6.2,33.1-18.5,43.4
			c-12.3,10.2-29.8,15.3-52.5,15.3L110.1,417.3L110.1,417.3z M116.8,411.1h351.3c14.6,0,25.6-0.9,32.9-2.6s13.7-4.7,19-8.7
			c5.9-4.6,10.5-10.4,13.8-17.6c3.3-7.1,5-14.9,5-23.3c0-12.1-2.8-21.8-8.5-29s-14.8-13.1-27.4-17.4c9.3-2.8,16.5-7.6,21.5-14.3
			s7.5-14.9,7.5-24.6c0-15.4-4.8-26.7-14.3-33.9c-9.5-7.2-24.5-10.8-45-10.8H116.8V411.1z M417.7,303.9v-53.4h55.8
			c10.8,0,19,2.2,24.4,6.6c5.4,4.4,8.1,11,8.1,19.7c0,9.2-2.8,16-8.3,20.4c-5.5,4.5-13.9,6.7-25,6.7L417.7,303.9L417.7,303.9z
			 M417.7,388.3v-63.1h55.8c13,0,22.6,2.5,28.6,7.6c6,5.1,9.1,13.1,9.1,24s-3,18.9-9.1,23.9s-15.7,7.5-28.9,7.5L417.7,388.3
			L417.7,388.3z M424.5,297.9h46.3c10,0,17.2-1.7,21.6-5c4.4-3.3,6.5-8.7,6.5-16.2c0-7.1-2.1-12.3-6.4-15.5
			c-4.3-3.2-11.2-4.8-20.8-4.8h-47.2V297.9z M424.5,382.1h47.5c12.2,0,20.6-1.9,25.3-5.7c4.7-3.8,7.1-10.3,7.1-19.6
			c0-9.1-2.5-15.6-7.3-19.6s-13.2-6-24.8-6h-47.7L424.5,382.1L424.5,382.1z"/>
	</g>
	<g>
		<path d="M110.1,417.2V57.6h169.4c36.8,0,64.8,7.8,84.1,23.3c19.3,15.5,28.9,38.1,28.9,67.8c0,18.2-3.6,33.5-10.7,45.6
			c-7.2,12.2-17.9,21.6-32.2,28.3c18.5,7.5,32.4,18.3,41.6,32.4c9.2,14.1,13.8,31.6,13.8,52.6c0,35-11.4,62-34.2,81
			c-22.8,19-55.1,28.6-96.9,28.6L110.1,417.2L110.1,417.2z M180.9,196.8h84.5c18.2,0,31.6-3.1,40-9.4c8.5-6.3,12.7-16.1,12.7-29.7
			c0-13.2-4.1-22.7-12.3-28.7c-8.2-5.9-21.9-8.9-40.9-8.9h-84L180.9,196.8L180.9,196.8z M180.9,352.3h87.6
			c20.7,0,35.7-3.7,45.2-11.2c9.4-7.5,14.2-19.3,14.2-35.4c0-16.8-4.6-28.8-13.9-36.2s-24.6-11.1-45.9-11.1h-87.2L180.9,352.3
			L180.9,352.3z"/>
	</g>
	<g>
		<path d="M405.3,60.5h37.2v96.7c0,11.9,2.8,20.6,8.3,26.1c5.5,5.5,14.3,8.2,26.3,8.2c12.2,0,21-2.7,26.6-8.2
			c5.6-5.4,8.3-14.2,8.3-26.2V60.5h36.9v100.2c0,18.9-6.1,33.4-18.4,43.5c-12.3,10.1-30,15.2-53.1,15.2c-23.3,0-41.1-5-53.5-15.1
			c-12.4-10.1-18.6-24.6-18.6-43.6L405.3,60.5L405.3,60.5z"/>
		<path d="M564.9,215.1V60.9h70.2c27.5,0,48,6.4,61.5,19.2s20.3,32.1,20.3,58.1c0,14.1-2.5,26.5-7.5,37.3s-12.2,19.4-21.7,26
			c-7.1,4.9-15.2,8.4-24.3,10.5c-9.1,2.1-21.8,3.2-38.2,3.2L564.9,215.1L564.9,215.1z M601,187.3h29.6c17.1,0,29.5-3.9,37.2-11.6
			c7.7-7.7,11.5-20.2,11.5-37.5c0-17.2-3.6-29.9-10.7-38c-7.1-8.1-18.3-12.1-33.5-12.1H601L601,187.3L601,187.3z"/>
		<path d="M866.5,196.9c-6.7,7.8-14.2,13.4-22.7,17.1c-8.5,3.6-18.4,5.4-29.9,5.4c-25.1,0-45.4-7.5-60.9-22.5
			c-15.5-15-23.3-34.6-23.3-59c0-24.6,7.8-44.2,23.2-58.9c15.5-14.7,36.2-22.1,62-22.1c22.5,0,40.8,4.6,55,13.9
			c14.2,9.2,22.6,22,25.3,38.2h-37.6c-2.3-8-6.9-14.1-13.9-18.3s-16.2-6.3-27.4-6.3c-15,0-26.8,4.7-35.3,14.2
			c-8.6,9.5-12.8,22.5-12.8,39.2c0,16.8,4.5,29.9,13.4,39.4c8.9,9.5,21.2,14.2,36.8,14.2c11.7,0,21.5-3,29.3-8.9
			s12.7-14.1,14.6-24.4h-40.7v-26.4h74.2v83.4H871L866.5,196.9z"/>
		<path d="M912.1,215.1V60.9h130.2v26.8h-93.8v32.9h85.8V147h-85.8v39.7h98.2v28.5L912.1,215.1L912.1,215.1z"/>
		<path d="M1109.2,215.1V88.5H1056V60.9h142.9v27.5h-52.8v126.7H1109.2z"/>
	</g>
	<g>
		<path d="M555,223.2h39.2v117.9c0,14.5,2.9,25.2,8.7,31.8c5.8,6.7,15,10,27.6,10c12.8,0,22.1-3.3,28-10c5.8-6.6,8.8-17.3,8.8-31.9
			V223.2H706v122.1c0,23.1-6.5,40.8-19.4,53.1c-12.9,12.3-31.5,18.5-55.8,18.5c-24.5,0-43.2-6.2-56.2-18.4s-19.5-30-19.5-53.2
			L555,223.2L555,223.2z"/>
		<path d="M718.8,411.7v-188h73.8c28.9,0,50.5,7.8,64.7,23.4c14.2,15.6,21.3,39.2,21.3,70.8c0,17.2-2.6,32.3-7.9,45.4
			S857.9,387,847.9,395c-7.5,6-16,10.2-25.6,12.8c-9.5,2.6-22.9,3.9-40.2,3.9L718.8,411.7L718.8,411.7z M756.8,377.8h31.1
			c18,0,31-4.7,39.1-14.1c8.1-9.4,12.1-24.7,12.1-45.8c0-21-3.8-36.5-11.3-46.3s-19.2-14.8-35.2-14.8h-35.8L756.8,377.8L756.8,377.8
			z"/>
		<path d="M890.1,411.7v-188h73.8c28.9,0,50.5,7.8,64.7,23.4c14.2,15.6,21.3,39.2,21.3,70.8c0,17.2-2.6,32.3-7.9,45.4
			s-12.9,23.7-22.8,31.7c-7.5,6-16,10.2-25.6,12.8c-9.6,2.6-22.9,3.9-40.2,3.9L890.1,411.7L890.1,411.7z M928.1,377.8h31.1
			c18,0,31-4.7,39.1-14.1c8.1-9.4,12.1-24.7,12.1-45.8c0-21-3.8-36.5-11.3-46.3s-19.2-14.8-35.2-14.8h-35.8L928.1,377.8L928.1,377.8
			z"/>
		<path d="M1136.8,411.7h-38.8v-70.1l-68.4-117.9h47.5l40.3,81l37.2-81h44.3l-62.1,117.9V411.7z"/>
	</g>
</g>
</svg>
